<svg width="617" height="92" viewBox="0 0 617 92" fill="none" xmlns="http://www.w3.org/2000/svg">
<path d="M0.2 90V75.536L31.688 39.568H0.456V22.288H58.568V36.752L26.952 72.72H59.592V90H0.2ZM69.15 90V22.288H89.886V26.64C94.6647 22.8853 100.297 21.008 106.782 21.008C111.049 21.008 114.889 21.8187 118.302 23.44C121.715 25.0613 124.574 27.3653 126.878 30.352C129.609 27.3653 132.851 25.0613 136.606 23.44C140.361 21.8187 144.457 21.008 148.894 21.008C154.014 21.008 158.537 22.16 162.462 24.464C166.387 26.768 169.459 29.968 171.678 34.064C173.982 38.16 175.134 42.896 175.134 48.272V90H154.398V51.088C154.398 47.3333 153.374 44.3467 151.326 42.128C149.363 39.9093 146.718 38.8 143.39 38.8C141.086 38.8 138.995 39.2267 137.118 40.08C135.241 40.9333 133.619 42.2133 132.254 43.92C132.339 44.6027 132.382 45.328 132.382 46.096C132.467 46.7787 132.51 47.504 132.51 48.272V90H111.774V51.088C111.774 47.3333 110.75 44.3467 108.702 42.128C106.739 39.9093 104.094 38.8 100.766 38.8C98.462 38.8 96.3713 39.2267 94.494 40.08C92.702 40.848 91.166 42.0427 89.886 43.664V90H69.15ZM209.032 91.152C204.253 91.152 199.987 90.256 196.232 88.464C192.563 86.672 189.661 84.1973 187.528 81.04C185.48 77.8827 184.456 74.256 184.456 70.16C184.456 63.6747 186.888 58.6827 191.752 55.184C196.701 51.6 203.571 49.808 212.36 49.808C217.651 49.808 222.771 50.448 227.72 51.728V48.4C227.72 44.9867 226.611 42.4693 224.392 40.848C222.259 39.1413 219.059 38.288 214.792 38.288C212.147 38.288 209.16 38.7147 205.832 39.568C202.589 40.4213 198.749 41.7867 194.312 43.664L186.888 28.432C192.435 25.9573 197.768 24.1227 202.888 22.928C208.093 21.648 213.299 21.008 218.504 21.008C227.891 21.008 235.187 23.2693 240.392 27.792C245.597 32.2293 248.2 38.5013 248.2 46.608V90H227.72V85.904C224.989 87.7813 222.088 89.1467 219.016 90C216.029 90.768 212.701 91.152 209.032 91.152ZM204.168 69.776C204.168 71.9093 205.107 73.5733 206.984 74.768C208.861 75.9627 211.464 76.56 214.792 76.56C217.267 76.56 219.571 76.304 221.704 75.792C223.923 75.28 225.928 74.4693 227.72 73.36V64.656C225.757 64.144 223.752 63.76 221.704 63.504C219.656 63.248 217.565 63.12 215.432 63.12C211.848 63.12 209.075 63.7173 207.112 64.912C205.149 66.0213 204.168 67.6427 204.168 69.776ZM260.525 90V22.288H281.261V29.072C283.48 26.3413 286.082 24.2933 289.069 22.928C292.056 21.4773 295.384 20.752 299.053 20.752C302.722 20.8373 305.325 21.392 306.861 22.416V40.464C305.496 39.7813 303.96 39.2693 302.253 38.928C300.546 38.5867 298.797 38.416 297.005 38.416C293.762 38.416 290.733 39.184 287.917 40.72C285.186 42.1707 282.968 44.2613 281.261 46.992V90H260.525ZM349.951 90.896C341.844 90.896 335.7 89.104 331.519 85.52C327.423 81.8507 325.375 76.4747 325.375 69.392V39.568H311.679V22.288H325.375V4.88L346.111 0.399994V22.288H365.055V39.568H346.111V65.296C346.111 68.2827 346.751 70.416 348.031 71.696C349.396 72.8907 351.743 73.488 355.071 73.488C356.778 73.488 358.314 73.4027 359.679 73.232C361.13 72.976 362.708 72.592 364.415 72.08V88.848C362.538 89.4453 360.148 89.9147 357.247 90.256C354.346 90.6827 351.914 90.896 349.951 90.896ZM373.15 90V22.288H393.886V29.072C396.105 26.3413 398.707 24.2933 401.694 22.928C404.681 21.4773 408.009 20.752 411.678 20.752C415.347 20.8373 417.95 21.392 419.486 22.416V40.464C418.121 39.7813 416.585 39.2693 414.878 38.928C413.171 38.5867 411.422 38.416 409.63 38.416C406.387 38.416 403.358 39.184 400.542 40.72C397.811 42.1707 395.593 44.2613 393.886 46.992V90H373.15ZM460.317 91.28C453.405 91.28 447.133 89.744 441.501 86.672C435.954 83.5147 431.56 79.2907 428.317 74C425.074 68.7093 423.453 62.7787 423.453 56.208C423.453 49.6373 424.989 43.7067 428.061 38.416C431.218 33.1253 435.485 28.944 440.861 25.872C446.237 22.7147 452.21 21.136 458.781 21.136C465.437 21.136 471.325 22.7573 476.445 26C481.565 29.1573 485.576 33.5093 488.477 39.056C491.464 44.6027 492.957 50.96 492.957 58.128V63.248H444.701C445.64 65.3813 446.877 67.2587 448.413 68.88C450.034 70.5013 451.954 71.7813 454.173 72.72C456.392 73.5733 458.781 74 461.341 74C464.157 74 466.717 73.5733 469.021 72.72C471.325 71.7813 473.288 70.5013 474.909 68.88L488.605 81.04C484.338 84.624 479.944 87.2267 475.421 88.848C470.984 90.4693 465.949 91.28 460.317 91.28ZM444.317 48.784H472.605C471.922 46.5653 470.856 44.688 469.405 43.152C468.04 41.5307 466.418 40.2933 464.541 39.44C462.664 38.5013 460.616 38.032 458.397 38.032C456.093 38.032 454.002 38.4587 452.125 39.312C450.248 40.1653 448.626 41.4027 447.261 43.024C445.981 44.56 445 46.48 444.317 48.784ZM530.027 91.28C523.627 91.28 517.696 90.5547 512.235 89.104C506.774 87.568 502.038 85.3493 498.027 82.448L507.883 68.496C512.15 71.056 516.032 72.9333 519.531 74.128C523.03 75.2373 526.486 75.792 529.899 75.792C533.312 75.792 536 75.3227 537.963 74.384C540.011 73.36 541.035 72.0373 541.035 70.416C541.035 69.136 540.48 68.112 539.371 67.344C538.262 66.4907 536.512 65.8933 534.123 65.552L520.683 63.504C513.942 62.48 508.779 60.2613 505.195 56.848C501.696 53.3493 499.947 48.8267 499.947 43.28C499.947 38.672 501.099 34.7467 503.403 31.504C505.792 28.176 509.163 25.6587 513.515 23.952C517.867 22.16 523.072 21.264 529.131 21.264C534.08 21.264 538.987 21.9467 543.851 23.312C548.715 24.6773 553.238 26.7253 557.419 29.456L547.563 42.768C543.894 40.6347 540.395 39.0987 537.067 38.16C533.739 37.136 530.411 36.624 527.083 36.624C524.438 36.624 522.304 37.0933 520.683 38.032C519.062 38.8853 518.251 40.0373 518.251 41.488C518.251 42.8533 518.848 43.9627 520.043 44.816C521.238 45.584 523.286 46.1813 526.187 46.608L539.627 48.656C546.283 49.5947 551.403 51.8133 554.987 55.312C558.656 58.7253 560.491 63.0773 560.491 68.368C560.491 72.8053 559.168 76.7307 556.523 80.144C553.878 83.5573 550.251 86.288 545.643 88.336C541.12 90.2987 535.915 91.28 530.027 91.28ZM601.326 90.896C593.219 90.896 587.075 89.104 582.894 85.52C578.798 81.8507 576.75 76.4747 576.75 69.392V39.568H563.054V22.288H576.75V4.88L597.486 0.399994V22.288H616.43V39.568H597.486V65.296C597.486 68.2827 598.126 70.416 599.406 71.696C600.771 72.8907 603.118 73.488 606.446 73.488C608.153 73.488 609.689 73.4027 611.054 73.232C612.505 72.976 614.083 72.592 615.79 72.08V88.848C613.913 89.4453 611.523 89.9147 608.622 90.256C605.721 90.6827 603.289 90.896 601.326 90.896Z" fill="black"/>
</svg>
