<svg width="617" height="92" viewBox="0 0 617 92" fill="none" xmlns="http://www.w3.org/2000/svg">
<path d="M0.199951 90.0004V75.5364L31.688 39.5684H0.455951V22.2884H58.568V36.7524L26.952 72.7204H59.5919V90.0004H0.199951ZM69.15 90.0004V22.2884H89.886V26.6404C94.6647 22.8857 100.297 21.0084 106.782 21.0084C111.049 21.0084 114.889 21.8191 118.302 23.4404C121.715 25.0617 124.574 27.3657 126.878 30.3524C129.609 27.3657 132.851 25.0617 136.606 23.4404C140.361 21.8191 144.457 21.0084 148.894 21.0084C154.014 21.0084 158.537 22.1604 162.462 24.4644C166.387 26.7684 169.459 29.9684 171.678 34.0644C173.982 38.1604 175.134 42.8964 175.134 48.2724V90.0004H154.398V51.0884C154.398 47.3337 153.374 44.3471 151.326 42.1284C149.363 39.9097 146.718 38.8004 143.39 38.8004C141.086 38.8004 138.995 39.2271 137.118 40.0804C135.241 40.9337 133.619 42.2137 132.254 43.9204C132.339 44.6031 132.382 45.3284 132.382 46.0964C132.467 46.7791 132.51 47.5044 132.51 48.2724V90.0004H111.774V51.0884C111.774 47.3337 110.75 44.3471 108.702 42.1284C106.739 39.9097 104.094 38.8004 100.766 38.8004C98.462 38.8004 96.3713 39.2271 94.494 40.0804C92.702 40.8484 91.166 42.0431 89.886 43.6644V90.0004H69.15ZM209.032 91.1524C204.253 91.1524 199.987 90.2564 196.232 88.4644C192.563 86.6724 189.661 84.1977 187.528 81.0404C185.48 77.8831 184.456 74.2564 184.456 70.1604C184.456 63.6751 186.888 58.6831 191.752 55.1844C196.701 51.6004 203.571 49.8084 212.36 49.8084C217.651 49.8084 222.771 50.4484 227.72 51.7284V48.4004C227.72 44.9871 226.611 42.4697 224.392 40.8484C222.259 39.1417 219.059 38.2884 214.792 38.2884C212.147 38.2884 209.16 38.7151 205.832 39.5684C202.589 40.4217 198.749 41.7871 194.312 43.6644L186.888 28.4324C192.435 25.9577 197.768 24.1231 202.888 22.9284C208.093 21.6484 213.299 21.0084 218.504 21.0084C227.891 21.0084 235.187 23.2697 240.392 27.7924C245.597 32.2297 248.2 38.5017 248.2 46.6084V90.0004H227.72V85.9044C224.989 87.7817 222.088 89.1471 219.016 90.0004C216.029 90.7684 212.701 91.1524 209.032 91.1524ZM204.168 69.7764C204.168 71.9097 205.107 73.5737 206.984 74.7684C208.861 75.9631 211.464 76.5604 214.792 76.5604C217.267 76.5604 219.571 76.3044 221.704 75.7924C223.923 75.2804 225.928 74.4697 227.72 73.3604V64.6564C225.757 64.1444 223.752 63.7604 221.704 63.5044C219.656 63.2484 217.565 63.1204 215.432 63.1204C211.848 63.1204 209.075 63.7177 207.112 64.9124C205.149 66.0217 204.168 67.6431 204.168 69.7764ZM260.525 90.0004V22.2884H281.261V29.0724C283.48 26.3417 286.082 24.2937 289.069 22.9284C292.056 21.4777 295.384 20.7524 299.053 20.7524C302.722 20.8377 305.325 21.3924 306.861 22.4164V40.4644C305.496 39.7817 303.96 39.2697 302.253 38.9284C300.546 38.5871 298.797 38.4164 297.005 38.4164C293.762 38.4164 290.733 39.1844 287.917 40.7204C285.186 42.1711 282.968 44.2617 281.261 46.9924V90.0004H260.525ZM349.951 90.8964C341.844 90.8964 335.7 89.1044 331.519 85.5204C327.423 81.8511 325.375 76.4751 325.375 69.3924V39.5684H311.679V22.2884H325.375V4.8804L346.111 0.400391V22.2884H365.055V39.5684H346.111V65.2964C346.111 68.2831 346.751 70.4164 348.031 71.6964C349.396 72.8911 351.743 73.4884 355.071 73.4884C356.778 73.4884 358.314 73.4031 359.679 73.2324C361.13 72.9764 362.708 72.5924 364.415 72.0804V88.8484C362.538 89.4457 360.148 89.9151 357.247 90.2564C354.346 90.6831 351.914 90.8964 349.951 90.8964ZM373.15 90.0004V22.2884H393.886V29.0724C396.105 26.3417 398.707 24.2937 401.694 22.9284C404.681 21.4777 408.009 20.7524 411.678 20.7524C415.347 20.8377 417.95 21.3924 419.486 22.4164V40.4644C418.121 39.7817 416.585 39.2697 414.878 38.9284C413.171 38.5871 411.422 38.4164 409.63 38.4164C406.387 38.4164 403.358 39.1844 400.542 40.7204C397.811 42.1711 395.593 44.2617 393.886 46.9924V90.0004H373.15ZM460.317 91.2804C453.405 91.2804 447.133 89.7444 441.501 86.6724C435.954 83.5151 431.56 79.2911 428.317 74.0004C425.074 68.7097 423.453 62.7791 423.453 56.2084C423.453 49.6377 424.989 43.7071 428.061 38.4164C431.218 33.1257 435.485 28.9444 440.861 25.8724C446.237 22.7151 452.21 21.1364 458.781 21.1364C465.437 21.1364 471.325 22.7577 476.445 26.0004C481.565 29.1577 485.576 33.5097 488.477 39.0564C491.464 44.6031 492.957 50.9604 492.957 58.1284V63.2484H444.701C445.64 65.3817 446.877 67.2591 448.413 68.8804C450.034 70.5017 451.954 71.7817 454.173 72.7204C456.392 73.5737 458.781 74.0004 461.341 74.0004C464.157 74.0004 466.717 73.5737 469.021 72.7204C471.325 71.7817 473.288 70.5017 474.909 68.8804L488.605 81.0404C484.338 84.6244 479.944 87.2271 475.421 88.8484C470.984 90.4697 465.949 91.2804 460.317 91.2804ZM444.317 48.7844H472.605C471.922 46.5657 470.856 44.6884 469.405 43.1524C468.04 41.5311 466.418 40.2937 464.541 39.4404C462.664 38.5017 460.616 38.0324 458.397 38.0324C456.093 38.0324 454.002 38.4591 452.125 39.3124C450.248 40.1657 448.626 41.4031 447.261 43.0244C445.981 44.5604 445 46.4804 444.317 48.7844ZM530.027 91.2804C523.627 91.2804 517.696 90.5551 512.235 89.1044C506.774 87.5684 502.038 85.3497 498.027 82.4484L507.883 68.4964C512.15 71.0564 516.032 72.9337 519.531 74.1284C523.03 75.2377 526.486 75.7924 529.899 75.7924C533.312 75.7924 536 75.3231 537.963 74.3844C540.011 73.3604 541.035 72.0377 541.035 70.4164C541.035 69.1364 540.48 68.1124 539.371 67.3444C538.262 66.4911 536.512 65.8937 534.123 65.5524L520.683 63.5044C513.942 62.4804 508.779 60.2617 505.195 56.8484C501.696 53.3497 499.947 48.8271 499.947 43.2804C499.947 38.6724 501.099 34.7471 503.403 31.5044C505.792 28.1764 509.163 25.6591 513.515 23.9524C517.867 22.1604 523.072 21.2644 529.131 21.2644C534.08 21.2644 538.987 21.9471 543.851 23.3124C548.715 24.6777 553.238 26.7257 557.419 29.4564L547.563 42.7684C543.894 40.6351 540.395 39.0991 537.067 38.1604C533.739 37.1364 530.411 36.6244 527.083 36.6244C524.438 36.6244 522.304 37.0937 520.683 38.0324C519.062 38.8857 518.251 40.0377 518.251 41.4884C518.251 42.8537 518.848 43.9631 520.043 44.8164C521.238 45.5844 523.286 46.1817 526.187 46.6084L539.627 48.6564C546.283 49.5951 551.403 51.8137 554.987 55.3124C558.656 58.7257 560.491 63.0777 560.491 68.3684C560.491 72.8057 559.168 76.7311 556.523 80.1444C553.878 83.5577 550.251 86.2884 545.643 88.3364C541.12 90.2991 535.915 91.2804 530.027 91.2804ZM601.326 90.8964C593.219 90.8964 587.075 89.1044 582.894 85.5204C578.798 81.8511 576.75 76.4751 576.75 69.3924V39.5684H563.054V22.2884H576.75V4.8804L597.486 0.400391V22.2884H616.43V39.5684H597.486V65.2964C597.486 68.2831 598.126 70.4164 599.406 71.6964C600.771 72.8911 603.118 73.4884 606.446 73.4884C608.153 73.4884 609.689 73.4031 611.054 73.2324C612.505 72.9764 614.083 72.5924 615.79 72.0804V88.8484C613.913 89.4457 611.523 89.9151 608.622 90.2564C605.721 90.6831 603.289 90.8964 601.326 90.8964Z" fill="white"/>
</svg>
